<?xml version="1.0" encoding="UTF-8" standalone="no"?>
<!-- Created with Inkscape (http://www.inkscape.org/) -->

<svg
   xmlns:dc="http://purl.org/dc/elements/1.1/"
   xmlns:cc="http://creativecommons.org/ns#"
   xmlns:rdf="http://www.w3.org/1999/02/22-rdf-syntax-ns#"
   xmlns:svg="http://www.w3.org/2000/svg"
   xmlns="http://www.w3.org/2000/svg"
   xmlns:sodipodi="http://sodipodi.sourceforge.net/DTD/sodipodi-0.dtd"
   xmlns:inkscape="http://www.inkscape.org/namespaces/inkscape"
   version="1.1"
   id="svg2"
   width="97.375519"
   height="49.54002"
   viewBox="0 0 97.375519 49.54002"
   sodipodi:docname="addfriends.svg"
   inkscape:version="0.92.1 r15371">
  <metadata
     id="metadata8">
    <rdf:RDF>
      <cc:Work
         rdf:about="">
        <dc:format>image/svg+xml</dc:format>
        <dc:type
           rdf:resource="http://purl.org/dc/dcmitype/StillImage" />
        <dc:title></dc:title>
      </cc:Work>
    </rdf:RDF>
  </metadata>
  <defs
     id="defs6" />
  <sodipodi:namedview
     pagecolor="#ffffff"
     bordercolor="#666666"
     borderopacity="1"
     objecttolerance="10"
     gridtolerance="10"
     guidetolerance="10"
     inkscape:pageopacity="0"
     inkscape:pageshadow="2"
     inkscape:window-width="1542"
     inkscape:window-height="930"
     id="namedview4"
     showgrid="false"
     fit-margin-top="0"
     fit-margin-left="0"
     fit-margin-right="0"
     fit-margin-bottom="0"
     inkscape:zoom="1.84375"
     inkscape:cx="132.14149"
     inkscape:cy="-112.15486"
     inkscape:window-x="323"
     inkscape:window-y="53"
     inkscape:window-maximized="0"
     inkscape:current-layer="layer1"
     inkscape:snap-global="false"
     inkscape:lockguides="true" />
  <g
     id="g4582"
     transform="translate(-0.06463827,-14.459979)">
    <path
       id="path4487"
       d="M 53.868,63.008 V 60.82 c 0,-3.327 -6.92,-6.02 -15.451,-6.02 -8.533,0 -15.454,2.697 -15.454,6.02 v 2.188 h 30.905"
       inkscape:connector-curvature="0"
       style="fill:#28b473" />
    <path
       id="path4489"
       d="m 32.2,57.898 c 0.424,0.195 4.162,1.084 7.932,1.278 4.01,0.206 8.05,-0.297 8.33,-0.586 0.554,-0.563 -0.39,-4.684 -0.346,-5.494 0.006,-0.064 -14.933,-0.751 -14.933,-0.751 0,0 -1.861,5.152 -0.983,5.553"
       inkscape:connector-curvature="0"
       style="fill:#249261" />
    <path
       id="path4491"
       d="M 24.181,40.818 C 23.847,47.601 31.105,53.459 40.41,53.908 49.701,54.363 57.5,49.244 57.828,42.457 58.164,35.686 51.446,18.602 42.153,18.148 32.849,17.691 24.509,34.042 24.181,40.814"
       inkscape:connector-curvature="0"
       style="fill:#ffccaa" />
    <path
       id="path4493"
       d="m 61.133,26.238 c -0.946,-2.756 -2.396,-3.939 -4.397,-5.211 0.354,-0.32 0.731,-0.744 1.242,-1.358 0.207,-0.255 0.549,-1.052 -0.056,-1.036 -4.563,0.153 -8.202,-4.375 -14.317,-4.166 -3.981,0.141 -11.854,1.986 -12.401,2.389 -3.237,2.355 -5.233,6.28 -6.337,10.377 -0.266,0.992 1.143,0.32 1.412,0.09 0.104,-0.09 0.222,-0.165 0.322,-0.244 -0.063,2.096 -0.505,4.146 -0.426,6.26 0.036,1.135 2.043,-0.674 2.221,-1.133 0.51,-1.281 1.061,-2.439 1.711,-3.627 0.109,-0.212 0.143,-0.335 0.123,-0.439 0.107,-0.094 0.188,-0.193 0.238,-0.285 1.098,-2.316 2.604,-4.213 4.479,-5.744 2.729,0.412 4.646,3.221 8.646,2.269 7.752,-1.841 10.228,3.348 11.713,10.746 0.202,1.031 1.905,-0.406 2.108,-0.885 1.215,-2.729 0.955,-4.721 0.474,-7.184 0.418,0.279 0.829,0.592 1.196,0.971 0.625,0.472 2.325,-0.982 2.049,-1.79"
       inkscape:connector-curvature="0"
       style="fill:#633d19" />
    <g
       id="g4499"
       style="fill:#25333a"
       transform="translate(-2.771,-1.272)">
      <path
         id="path4495"
         d="m 40.794,37.15 c -0.084,1.654 -1.262,2.945 -2.629,2.883 -1.367,-0.07 -2.409,-1.469 -2.328,-3.127 0.082,-1.656 1.254,-2.953 2.621,-2.887 1.365,0.067 2.416,1.471 2.336,3.131"
         inkscape:connector-curvature="0" />
      <path
         id="path4497"
         d="m 52.56,37.719 c -0.076,1.662 -1.254,2.949 -2.615,2.883 -1.37,-0.064 -2.418,-1.465 -2.336,-3.125 0.082,-1.658 1.257,-2.953 2.629,-2.889 1.361,0.07 2.404,1.471 2.322,3.131"
         inkscape:connector-curvature="0" />
    </g>
    <path
       id="path4501"
       d="m 39.013,41.597 c 0,-0.943 0.812,-0.924 1.903,-0.924 1.101,0 2.071,-0.021 2.071,0.924 0,0.949 -0.891,1.715 -1.987,1.715 -1.091,0 -1.987,-0.766 -1.987,-1.715"
       inkscape:connector-curvature="0"
       style="opacity:0.6;fill:#c37929" />
    <path
       id="path4503"
       d="m 49.875,45.376 c 0,4.588 -3.723,8.313 -8.314,8.313 -4.584,0 -8.311,-3.725 -8.311,-8.313"
       inkscape:connector-curvature="0"
       style="fill:#633f1a" />
    <path
       id="path4505"
       d="m 48.449,46.208 c 0,1.834 -3.146,3.318 -7.03,3.318 -3.877,0 -7.02,-1.484 -7.02,-3.318"
       inkscape:connector-curvature="0"
       style="fill:#ffffff" />
    <path
       id="path4507"
       d="m 34.24,42.846 c 0,9.145 -6.775,16.563 -15.12,16.563 C 10.776,59.409 4,51.989 4,42.846 V 34 c 0,-9.144 6.775,-16.563 15.12,-16.563 8.342,0 15.12,7.42 15.12,16.563 v 8.846"
       inkscape:connector-curvature="0"
       style="fill:#593212" />
    <path
       id="path4509"
       d="m 34.02,64 v -2.879 c 0,-4.227 -6.901,-7.654 -15.427,-7.654 -8.529,0 -15.443,3.43 -15.443,7.654 V 64 h 30.87"
       inkscape:connector-curvature="0"
       style="fill:#ed307c" />
    <path
       id="path4511"
       d="m 25.526,48.664 h -6.84 -0.199 -6.84 c -0.137,1.529 -0.934,5.977 -0.506,6.268 0.388,0.262 5.354,0.668 7.445,0.668 2.091,0 7.06,-0.406 7.444,-0.668 0.43,-0.291 -0.367,-4.739 -0.504,-6.268"
       inkscape:connector-curvature="0"
       style="fill:#cb2874" />
    <path
       id="path4513"
       d="m 4.481,39.4 c 0,5.898 6.547,10.679 14.639,10.679 8.09,0 14.646,-4.778 14.646,-10.679 0,-5.896 -6.558,-14.633 -14.646,-14.633 C 11.028,24.768 4.481,33.506 4.481,39.4"
       inkscape:connector-curvature="0"
       style="fill:#ffccaa" />
    <g
       id="g4519"
       style="fill:#25333a">
      <path
         id="path4515"
         d="m 16.284,35.418 c 0,1.441 -0.965,2.614 -2.154,2.614 -1.191,0 -2.15,-1.173 -2.15,-2.614 0,-1.451 0.959,-2.617 2.15,-2.617 1.189,0 2.154,1.164 2.154,2.617"
         inkscape:connector-curvature="0" />
      <path
         id="path4517"
         d="m 26.53,35.418 c 0,1.441 -0.963,2.614 -2.151,2.614 -1.196,0 -2.164,-1.173 -2.164,-2.614 0,-1.451 0.968,-2.617 2.164,-2.617 1.188,0 2.151,1.164 2.151,2.617"
         inkscape:connector-curvature="0" />
    </g>
    <g
       id="g4525"
       style="fill:#633f1a">
      <path
         id="path4521"
         d="m 19.12,44.508 c 0.992,0 1.797,0.805 1.797,1.797 0,0.992 -0.805,1.799 -1.797,1.799 -0.994,0 -1.797,-0.807 -1.797,-1.799 0,-0.992 0.803,-1.797 1.797,-1.797"
         inkscape:connector-curvature="0" />
      <path
         id="path4523"
         d="m 25.79,42.16 c 0,3.8 -3.082,6.882 -6.881,6.882 -3.797,0 -6.881,-3.082 -6.881,-6.882"
         inkscape:connector-curvature="0" />
    </g>
    <path
       id="path4527"
       d="m 24.612,42.848 c 0,1.519 -2.604,2.748 -5.816,2.748 -3.211,0 -5.818,-1.229 -5.818,-2.748"
       inkscape:connector-curvature="0"
       style="fill:#ffffff" />
    <path
       id="path4529"
       d="m 23.7,19.897 c 0.168,-2.547 -3.33,-3.911 -5.221,-4.17 -1.89,-0.261 -3.201,0.151 -4.717,0.712 -4.348,1.607 -7.247,5.384 -9.333,9.209 -2.881,4.221 -4.913,8.715 -4.216,14.04 0.406,3.104 1.833,6.03 3.445,8.722 1.021,1.71 2.221,3.313 3.203,5.05 0.637,1.12 -0.146,5.05 -2.181,5.209 -2.035,0.162 -2,5.176 2.722,5.16 4.426,-0.019 6.06,-3.941 5.146,-7.49 C 11.628,52.79 7.683,51.227 7.109,48.11 6.602,45.358 6.504,41.08 7.351,38.428 c 0.691,-2.426 2.319,-6.405 4.146,-8.155 2.453,-2.351 2.965,-2.431 4.596,-4.112 2.591,-2.672 8.06,-2.525 7.607,-6.261"
       inkscape:connector-curvature="0"
       style="fill:#7c4622" />
    <path
       id="path4531"
       d="m 23.687,19.689 c -1.507,1.445 -3.146,2.775 -4.807,4.09 -3.278,2.59 -7.104,4.52 -9.521,7.958 C 6.462,35.854 4.805,40.095 5.3,45.1 c 0.361,3.652 3.063,6.05 4.052,9.432 0.925,3.152 -0.372,8.736 -5.19,6.316 -1.371,-0.688 -0.637,2.986 3.23,2.978 4.428,-0.019 6.077,-3.94 5.159,-7.489 -0.92,-3.549 -3.505,-4.887 -4.608,-8.229 -0.879,-2.657 -1.438,-7.03 -0.589,-9.682 2.597,-7.461 7.173,-10.221 8.933,-11.769 0.725,-0.637 6.449,-4.368 7.406,-6.758 10e-4,-0.073 -0.005,-0.141 -0.006,-0.21"
       inkscape:connector-curvature="0"
       style="fill:#593212" />
    <path
       id="path4533"
       d="m 1.885,44.844 c -0.621,-4.367 0.292,-8.791 2.469,-12.7 2.146,-3.845 4.657,-7.06 8.491,-9.548 2.229,-1.443 5.952,-3.545 8.309,-6.03 -0.929,-0.456 -1.934,-0.738 -2.685,-0.841 -1.89,-0.261 -3.203,0.151 -4.72,0.712 -4.346,1.607 -7.242,5.384 -9.33,9.209 -2.881,4.221 -4.913,8.715 -4.217,14.04 0.256,1.953 0.916,3.834 1.771,5.631 C 1.946,45.16 1.906,44.998 1.885,44.842"
       inkscape:connector-curvature="0"
       style="fill:#864f28" />
    <path
       id="path4535"
       d="M 34.15,27.703 C 32.601,21.939 28.522,16.176 23.754,17.436 c -3.211,0.851 -5.139,5.146 -4.869,6.343 0.498,2.221 4.711,2.987 6.906,5.485 1.91,2.174 3.557,3.718 5.166,6.02 1.438,2.063 0.228,6.729 0.281,8.09 0.055,1.36 -0.994,4.854 -1.885,6.25 -0.507,0.797 0.4,1.869 1.02,1.226 5.626,-5.852 5.997,-14.883 3.777,-23.15"
       inkscape:connector-curvature="0"
       style="fill:#7c4622" />
    <path
       id="path4537"
       d="m 30.23,28.14 c 2.527,2.495 3.986,5.328 4.764,8.688 0.153,0.668 0.262,1.379 0.325,2.117 0.291,-3.666 -0.178,-7.531 -1.176,-11.247 -1.549,-5.762 -5.626,-11.526 -10.396,-10.266 -2.256,0.598 -3.759,2.881 -4.444,4.612 2.663,2.869 8.154,3.356 10.927,6.096"
       inkscape:connector-curvature="0"
       style="fill:#864f28" />
    <path
       id="path4539"
       d="m 30.399,34.725 c 1.438,2.062 0.78,7.291 0.834,8.652 0.055,1.359 -0.994,4.854 -1.885,6.25 -0.365,0.576 0.006,1.287 0.475,1.396 4.258,-6.02 5.367,-16.13 0.114,-20.409 -3.389,-2.76 -7.981,-3.624 -11.03,-6.421 1.233,2.117 3.055,3.614 5.701,5.348 2.534,1.658 4.176,2.877 5.787,5.184"
       inkscape:connector-curvature="0"
       style="fill:#593212" />
    <path
       id="path4541"
       d="m 20.29,40 c 0,0.557 -0.474,0.547 -1.119,0.547 -0.648,0 -1.222,0.012 -1.222,-0.547 0,-0.561 0.525,-1.01 1.171,-1.01 0.645,0 1.17,0.448 1.17,1.01"
       inkscape:connector-curvature="0"
       style="opacity:0.6;fill:#c07929" />
    <path
       style="fill:none;fill-rule:evenodd;stroke:#000000;stroke-width:1px;stroke-linecap:butt;stroke-linejoin:miter;stroke-opacity:1"
       d="m 58.359001,13.759463 v 0.767031"
       id="path4615"
       inkscape:connector-curvature="0" />
  </g>
  <g
     inkscape:groupmode="layer"
     id="layer1"
     inkscape:label="addFriends"
     style="display:inline">
    <g
       id="g3015"
       transform="matrix(0.02765613,0,0,-0.03288476,59.470589,48.130174)">
      <path
         style="fill:currentColor"
         inkscape:connector-curvature="0"
         id="path3017"
         d="M 1408,800 V 608 q 0,-40 -28,-68 -28,-28 -68,-28 H 896 V 96 Q 896,56 868,28 840,0 800,0 H 608 Q 568,0 540,28 512,56 512,96 V 512 H 96 Q 56,512 28,540 0,568 0,608 v 192 q 0,40 28,68 28,28 68,28 h 416 v 416 q 0,40 28,68 28,28 68,28 h 192 q 40,0 68,-28 28,-28 28,-68 V 896 h 416 q 40,0 68,-28 28,-28 28,-68 z" />
    </g>
  </g>
  <g
     inkscape:groupmode="layer"
     id="layer2"
     inkscape:label="friendsOK"
     style="display:none">
    <path
       transform="translate(-0.06463827,-14.459979)"
       style="fill:#008000;fill-rule:evenodd;stroke:#000000;stroke-width:0.95000631px;stroke-linecap:butt;stroke-linejoin:miter;stroke-opacity:1"
       d="m 61.10608,24.157272 c 0,0 19.49329,41.299719 21.029194,40.262583 C 83.671179,63.382719 105.9418,6.6859371 105.9418,6.6859371 104.70101,6.0510224 104.05108,4.4142465 101.33408,5.9945129 L 81.367322,44.714266 64.856344,22.588693 c -0.935104,-0.327926 -1.820802,-0.7893 -3.750264,1.568579 z"
       id="path4621"
       inkscape:connector-curvature="0"
       sodipodi:nodetypes="csccccc" />
  </g>
</svg>
