<?xml version="1.0" encoding="UTF-8" standalone="no"?>
<!-- Generator: Adobe Illustrator 21.1.0, SVG Export Plug-In . SVG Version: 6.00 Build 0)  -->

<svg
   xmlns:dc="http://purl.org/dc/elements/1.1/"
   xmlns:cc="http://creativecommons.org/ns#"
   xmlns:rdf="http://www.w3.org/1999/02/22-rdf-syntax-ns#"
   xmlns:svg="http://www.w3.org/2000/svg"
   xmlns="http://www.w3.org/2000/svg"
   xmlns:sodipodi="http://sodipodi.sourceforge.net/DTD/sodipodi-0.dtd"
   xmlns:inkscape="http://www.inkscape.org/namespaces/inkscape"
   id="Layer_1"
   x="0px"
   y="0px"
   viewBox="0 0 512 512"
   style="enable-background:new 0 0 512 512;"
   xml:space="preserve"
   version="1.1"
   sodipodi:docname="011-message.svg"
   inkscape:version="0.92.1 r15371"><metadata
     id="metadata27"><rdf:RDF><cc:Work
         rdf:about=""><dc:format>image/svg+xml</dc:format><dc:type
           rdf:resource="http://purl.org/dc/dcmitype/StillImage" /></cc:Work></rdf:RDF></metadata><defs
     id="defs25" /><sodipodi:namedview
     pagecolor="#ffffff"
     bordercolor="#666666"
     borderopacity="1"
     objecttolerance="10"
     gridtolerance="10"
     guidetolerance="10"
     inkscape:pageopacity="0"
     inkscape:pageshadow="2"
     inkscape:window-width="1404"
     inkscape:window-height="838"
     id="namedview23"
     showgrid="false"
     inkscape:zoom="0.32593203"
     inkscape:cx="60.40563"
     inkscape:cy="438.198"
     inkscape:window-x="39"
     inkscape:window-y="44"
     inkscape:window-maximized="0"
     inkscape:current-layer="Layer_1" /><style
     type="text/css"
     id="style2">
	.st0{fill:#01685B;}
</style><g
     id="g8"><g
       id="g6"><path
         class="st0"
         d="M511.6,197.6c0-0.8-0.2-1.9-0.5-2.6c-0.8-2.9-2.5-5.5-5.2-7.3l-73.3-50.9V82.2c0-7.2-5.9-13.1-13.1-13.1    h-84.3l-71.7-49.9c-4.5-3.1-10.4-3.1-14.9,0L176.4,69h-84c-7.2,0-13.1,5.9-13.1,13.1v54L5.7,187c-3.6,2.5-5.6,6.5-5.6,10.6    c0,0.1,0,0.1,0,0.2l0.4,284.2c0,3.5,1.4,6.8,3.9,9.3c2.5,2.5,5.8,3.8,9.3,3.8c0,0,0,0,0,0l485.4-0.7c7.2,0,13.1-5.9,13.1-13.1    L511.6,197.6z M432.7,168.7l41.9,29.1L432.7,227V168.7z M256,45.9L289.3,69h-66.8L256,45.9z M105.5,95.3h300.9v149.9l-101,70.2    l-41.2-32c-0.1,0-0.1-0.1-0.2-0.1c-4.6-3.5-11.1-3.6-15.9,0.1l-41.5,32.2l-101.1-69.9V95.3z M79.3,168v59.6l-43.1-29.8L79.3,168z     M26.3,222.9l158.7,109.7L26.6,455.3L26.3,222.9z M51.9,468.9l204.3-158.5l203.6,157.9L51.9,468.9z M327.1,332.3l158.3-110    l0.3,233.1L327.1,332.3z"
         id="path4"
         style="fill:#d40000" /></g></g><g
     id="g14"><g
       id="g12"><path
         class="st0"
         d="M344.8,147.7H167.2c-7.2,0-13.1,5.9-13.1,13.1s5.9,13.1,13.1,13.1h177.5c7.2,0,13.1-5.9,13.1-13.1    S352,147.7,344.8,147.7z"
         id="path10"
         style="fill:#333333" /></g></g><g
     id="g20"><g
       id="g18"><path
         class="st0"
         d="M344.8,215.9H167.2c-7.2,0-13.1,5.9-13.1,13.1s5.9,13.1,13.1,13.1h177.5c7.2,0,13.1-5.9,13.1-13.1    S352,215.9,344.8,215.9z"
         id="path16"
         style="fill:#333333" /></g></g><flowRoot
     xml:space="preserve"
     id="flowRoot4508"
     style="fill:black;stroke:none;stroke-opacity:1;stroke-width:1px;stroke-linejoin:miter;stroke-linecap:butt;fill-opacity:1;font-family:sans-serif;font-style:normal;font-weight:normal;font-size:40px;line-height:125%;letter-spacing:0px;word-spacing:0px"><flowRegion
       id="flowRegion4510"><rect
         id="rect4512"
         width="52.158115"
         height="144.20184"
         x="411.12866"
         y="-386.96042" /></flowRegion><flowPara
       id="flowPara4514"></flowPara></flowRoot></svg>